<svg id="visual" viewBox="0 0 2388 1668" width="2388" height="1668" xmlns="http://www.w3.org/2000/svg" xmlns:xlink="http://www.w3.org/1999/xlink" version="1.1"><path d="M0 368L36.2 362.5C72.3 357 144.7 346 217 343.2C289.3 340.3 361.7 345.7 434 354C506.3 362.3 578.7 373.7 651 351.5C723.3 329.3 795.7 273.7 868 279.2C940.3 284.7 1012.7 351.3 1085.2 351.3C1157.7 351.3 1230.3 284.7 1302.8 245.7C1375.3 206.7 1447.7 195.3 1520 220.3C1592.3 245.3 1664.7 306.7 1737 317.8C1809.3 329 1881.7 290 1954 276.2C2026.3 262.3 2098.7 273.7 2171 259.8C2243.3 246 2315.7 207 2351.8 187.5L2388 168L2388 0L2351.8 0C2315.7 0 2243.3 0 2171 0C2098.7 0 2026.3 0 1954 0C1881.7 0 1809.3 0 1737 0C1664.7 0 1592.3 0 1520 0C1447.7 0 1375.3 0 1302.8 0C1230.3 0 1157.7 0 1085.2 0C1012.7 0 940.3 0 868 0C795.7 0 723.3 0 651 0C578.7 0 506.3 0 434 0C361.7 0 289.3 0 217 0C144.7 0 72.3 0 36.2 0L0 0Z" fill="#6198ff"></path><path d="M0 585L36.2 573.8C72.3 562.7 144.7 540.3 217 540.3C289.3 540.3 361.7 562.7 434 587.7C506.3 612.7 578.7 640.3 651 632C723.3 623.7 795.7 579.3 868 557.2C940.3 535 1012.7 535 1085.2 501.7C1157.7 468.3 1230.3 401.7 1302.8 396C1375.3 390.3 1447.7 445.7 1520 473.3C1592.3 501 1664.7 501 1737 506.7C1809.3 512.3 1881.7 523.7 1954 512.7C2026.3 501.7 2098.7 468.3 2171 462.7C2243.3 457 2315.7 479 2351.8 490L2388 501L2388 166L2351.8 185.5C2315.7 205 2243.3 244 2171 257.8C2098.7 271.7 2026.3 260.3 1954 274.2C1881.7 288 1809.3 327 1737 315.8C1664.7 304.7 1592.3 243.3 1520 218.3C1447.7 193.3 1375.3 204.7 1302.8 243.7C1230.3 282.7 1157.7 349.3 1085.2 349.3C1012.7 349.3 940.3 282.7 868 277.2C795.7 271.7 723.3 327.3 651 349.5C578.7 371.7 506.3 360.3 434 352C361.7 343.7 289.3 338.3 217 341.2C144.7 344 72.3 355 36.2 360.5L0 366Z" fill="#3c80ff"></path><path d="M0 1035L36.2 1012.8C72.3 990.7 144.7 946.3 217 965.8C289.3 985.3 361.7 1068.7 434 1090.8C506.3 1113 578.7 1074 651 1079.5C723.3 1085 795.7 1135 868 1115.5C940.3 1096 1012.7 1007 1085.2 951.5C1157.7 896 1230.3 874 1302.8 893.5C1375.3 913 1447.7 974 1520 1007.3C1592.3 1040.7 1664.7 1046.3 1737 1068.7C1809.3 1091 1881.7 1130 1954 1130C2026.3 1130 2098.7 1091 2171 1029.8C2243.3 968.7 2315.7 885.3 2351.8 843.7L2388 802L2388 499L2351.8 488C2315.7 477 2243.3 455 2171 460.7C2098.7 466.3 2026.3 499.7 1954 510.7C1881.7 521.7 1809.3 510.3 1737 504.7C1664.7 499 1592.3 499 1520 471.3C1447.7 443.7 1375.3 388.3 1302.8 394C1230.3 399.7 1157.7 466.3 1085.2 499.7C1012.7 533 940.3 533 868 555.2C795.7 577.3 723.3 621.7 651 630C578.7 638.3 506.3 610.7 434 585.7C361.7 560.7 289.3 538.3 217 538.3C144.7 538.3 72.3 560.7 36.2 571.8L0 583Z" fill="#0066ff"></path><path d="M0 1285L36.2 1243.3C72.3 1201.7 144.7 1118.3 217 1121.2C289.3 1124 361.7 1213 434 1257.5C506.3 1302 578.7 1302 651 1302C723.3 1302 795.7 1302 868 1274.2C940.3 1246.3 1012.7 1190.7 1085.2 1157.3C1157.7 1124 1230.3 1113 1302.8 1124.2C1375.3 1135.3 1447.7 1168.7 1520 1182.5C1592.3 1196.3 1664.7 1190.7 1737 1215.7C1809.3 1240.7 1881.7 1296.3 1954 1296.3C2026.3 1296.3 2098.7 1240.7 2171 1187.8C2243.3 1135 2315.7 1085 2351.8 1060L2388 1035L2388 800L2351.8 841.7C2315.7 883.3 2243.3 966.7 2171 1027.8C2098.7 1089 2026.3 1128 1954 1128C1881.7 1128 1809.3 1089 1737 1066.7C1664.7 1044.3 1592.3 1038.7 1520 1005.3C1447.7 972 1375.3 911 1302.8 891.5C1230.3 872 1157.7 894 1085.2 949.5C1012.7 1005 940.3 1094 868 1113.5C795.7 1133 723.3 1083 651 1077.5C578.7 1072 506.3 1111 434 1088.8C361.7 1066.7 289.3 983.3 217 963.8C144.7 944.3 72.3 988.7 36.2 1010.8L0 1033Z" fill="#0059dd"></path><path d="M0 1669L36.2 1669C72.3 1669 144.7 1669 217 1669C289.3 1669 361.7 1669 434 1669C506.3 1669 578.7 1669 651 1669C723.3 1669 795.7 1669 868 1669C940.3 1669 1012.7 1669 1085.2 1669C1157.7 1669 1230.3 1669 1302.8 1669C1375.3 1669 1447.7 1669 1520 1669C1592.3 1669 1664.7 1669 1737 1669C1809.3 1669 1881.7 1669 1954 1669C2026.3 1669 2098.7 1669 2171 1669C2243.3 1669 2315.7 1669 2351.8 1669L2388 1669L2388 1033L2351.8 1058C2315.7 1083 2243.3 1133 2171 1185.8C2098.7 1238.7 2026.3 1294.3 1954 1294.3C1881.7 1294.3 1809.3 1238.7 1737 1213.7C1664.7 1188.7 1592.3 1194.3 1520 1180.5C1447.7 1166.7 1375.3 1133.3 1302.8 1122.2C1230.3 1111 1157.7 1122 1085.2 1155.3C1012.7 1188.7 940.3 1244.3 868 1272.2C795.7 1300 723.3 1300 651 1300C578.7 1300 506.3 1300 434 1255.5C361.7 1211 289.3 1122 217 1119.2C144.7 1116.3 72.3 1199.7 36.2 1241.3L0 1283Z" fill="#004cbb"></path></svg>