<?xml version="1.0" encoding="UTF-8"?>
<svg xmlns="http://www.w3.org/2000/svg" xmlns:xlink="http://www.w3.org/1999/xlink" width="200px" height="150px" viewBox="0 0 384 288" version="1.1">
<g id="surface1">
<path style=" stroke:none;fill-rule:nonzero;fill:rgb(0%,0%,0%);fill-opacity:1;" d="M 199.847656 91.152344 C 196.808594 91.148438 194.203125 88.984375 193.636719 86 L 183.261719 30.761719 L 120.589844 42.53125 L 128.3125 83.664062 C 128.949219 87.097656 126.691406 90.398438 123.261719 91.042969 C 119.828125 91.683594 116.527344 89.421875 115.878906 85.992188 L 106.992188 38.652344 C 106.347656 35.222656 108.605469 31.917969 112.039062 31.273438 L 187.148438 17.164062 C 190.582031 16.523438 193.882812 18.785156 194.523438 22.21875 L 206.0625 83.664062 C 206.414062 85.511719 205.917969 87.421875 204.71875 88.871094 C 203.515625 90.320312 201.730469 91.15625 199.847656 91.152344 Z M 256.757812 91.152344 C 254.851562 91.152344 253.050781 90.296875 251.84375 88.824219 C 250.648438 87.34375 250.175781 85.40625 250.5625 83.539062 L 258.628906 44.78125 L 229.863281 38.792969 L 220.011719 86.113281 C 219.265625 89.5 215.9375 91.652344 212.546875 90.949219 C 209.152344 90.242188 206.960938 86.941406 207.625 83.539062 L 218.78125 30.023438 C 219.113281 28.378906 220.089844 26.933594 221.496094 26.015625 C 222.902344 25.097656 224.617188 24.773438 226.261719 25.117188 L 267.402344 33.6875 C 270.820312 34.398438 273.015625 37.75 272.308594 41.167969 L 262.945312 86.113281 C 262.339844 89.046875 259.753906 91.152344 256.757812 91.152344 Z M 256.757812 91.152344 "/>
<path style=" stroke:none;fill-rule:nonzero;fill:rgb(0%,0%,0%);fill-opacity:1;" d="M 233.625 39.445312 C 230.132812 39.445312 227.300781 36.609375 227.304688 33.117188 L 227.304688 14.230469 L 175.890625 14.230469 L 175.890625 26.902344 C 175.890625 30.394531 173.058594 33.226562 169.566406 33.226562 C 166.074219 33.226562 163.242188 30.394531 163.242188 26.902344 L 163.242188 7.902344 C 163.242188 4.410156 166.074219 1.582031 169.566406 1.582031 L 233.625 1.582031 C 237.117188 1.578125 239.953125 4.410156 239.953125 7.902344 L 239.953125 33.117188 C 239.953125 34.796875 239.289062 36.40625 238.101562 37.59375 C 236.914062 38.777344 235.304688 39.445312 233.625 39.441406 Z M 300.695312 286.09375 L 82.980469 286.09375 C 81.222656 286.097656 79.546875 285.367188 78.347656 284.082031 C 77.152344 282.792969 76.546875 281.066406 76.679688 279.316406 L 90.777344 84.375 C 91.015625 81.070312 93.765625 78.511719 97.078125 78.515625 L 286.597656 78.515625 C 289.921875 78.515625 292.671875 81.070312 292.90625 84.375 L 307.003906 279.316406 C 307.128906 281.066406 306.523438 282.792969 305.324219 284.082031 C 304.132812 285.371094 302.453125 286.101562 300.695312 286.09375 Z M 89.773438 273.453125 L 293.898438 273.453125 L 280.714844 91.152344 L 102.960938 91.152344 Z M 89.773438 273.453125 "/>
<path style=" stroke:none;fill-rule:nonzero;fill:rgb(0%,0%,0%);fill-opacity:1;" d="M 191.84375 229.675781 C 163.644531 229.675781 140.707031 206.738281 140.707031 178.542969 L 140.707031 133.726562 C 140.816406 130.316406 143.613281 127.609375 147.027344 127.609375 C 150.4375 127.609375 153.234375 130.316406 153.34375 133.726562 L 153.34375 178.542969 C 153.34375 199.765625 170.617188 217.039062 191.84375 217.039062 C 213.066406 217.039062 230.328125 199.765625 230.328125 178.539062 L 230.328125 133.730469 C 230.367188 130.261719 233.1875 127.472656 236.652344 127.472656 C 240.117188 127.472656 242.9375 130.261719 242.976562 133.730469 L 242.976562 178.542969 C 242.976562 206.738281 220.039062 229.679688 191.84375 229.679688 Z M 191.84375 229.675781 "/>
<path style=" stroke:none;fill-rule:nonzero;fill:rgb(0%,0%,0%);fill-opacity:1;" d="M 159.71875 140.042969 L 134.109375 140.042969 C 130.699219 139.933594 127.992188 137.136719 127.992188 133.726562 C 127.992188 130.3125 130.699219 127.519531 134.109375 127.40625 L 159.71875 127.40625 C 163.210938 127.402344 166.046875 130.234375 166.046875 133.726562 C 166.042969 137.21875 163.210938 140.046875 159.71875 140.042969 Z M 249.460938 140.042969 L 223.84375 140.042969 C 220.433594 139.933594 217.726562 137.136719 217.726562 133.726562 C 217.726562 130.3125 220.433594 127.519531 223.84375 127.40625 L 249.464844 127.40625 C 252.875 127.519531 255.582031 130.3125 255.582031 133.726562 C 255.582031 137.136719 252.875 139.933594 249.464844 140.042969 Z M 249.460938 140.042969 "/>
</g>
</svg>
