<svg xmlns="http://www.w3.org/2000/svg" viewBox="0 0 512 384"><path d="M266.464 121.536a8.445 8.445 0 0 1-8.283-6.87l-13.83-73.65-83.565 15.69 10.299 54.846a8.445 8.445 0 0 1-6.738 9.84 8.445 8.445 0 0 1-9.843-6.735l-11.85-63.12a8.43 8.43 0 0 1 6.729-9.84l100.149-18.81a8.427 8.427 0 0 1 9.831 6.738l15.387 81.927a8.418 8.418 0 0 1-8.286 9.984zm75.879 0a8.442 8.442 0 0 1-6.549-3.105 8.472 8.472 0 0 1-1.71-7.044l10.755-51.681-38.355-7.98-13.137 63.093a8.433 8.433 0 0 1-16.512-3.432l14.871-71.355a8.358 8.358 0 0 1 3.621-5.343 8.43 8.43 0 0 1 6.354-1.197l54.855 11.427a8.433 8.433 0 0 1 6.54 9.972l-12.48 59.928a8.43 8.43 0 0 1-8.25 6.717z"/><path d="M311.5 52.593a8.43 8.43 0 0 1-8.427-8.436V18.972H234.52v16.899a8.431 8.431 0 1 1-16.863 0V10.536a8.43 8.43 0 0 1 8.433-8.427h85.41a8.43 8.43 0 0 1 8.439 8.427v33.621a8.43 8.43 0 0 1-8.439 8.433v.003zm89.427 328.863H110.641a8.403 8.403 0 0 1-8.4-9.036l18.795-259.92a8.421 8.421 0 0 1 8.4-7.815h252.693c4.431 0 8.1 3.408 8.415 7.815l18.795 259.92a8.442 8.442 0 0 1-2.238 6.354 8.352 8.352 0 0 1-6.174 2.682zm-281.229-16.851h272.169l-17.58-243.069H137.281z"/><path d="M255.79 306.234c-37.596 0-68.181-30.585-68.181-68.178v-59.754a8.43 8.43 0 0 1 16.851 0v59.754c0 28.299 23.028 51.327 51.33 51.327 28.299 0 51.315-23.028 51.315-51.33v-59.748a8.432 8.432 0 0 1 16.863 0v59.754c0 37.59-30.585 68.178-68.178 68.178v-.003z"/><path d="M212.956 186.726H178.81a8.43 8.43 0 0 1 0-16.851h34.146a8.43 8.43 0 0 1 8.439 8.427 8.43 8.43 0 0 1-8.439 8.424zm119.661 0h-34.161a8.43 8.43 0 0 1 0-16.851h34.164a8.43 8.43 0 0 1 0 16.851z"/></svg>